<svg width="32" height="32" viewBox="0 0 32 32" fill="none" xmlns="http://www.w3.org/2000/svg">
<path d="M16 22.6667V14.6667"  stroke-width="1.5" stroke-linecap="round"/>
<path d="M16 9.33333C16.7364 9.33333 17.3334 9.93029 17.3334 10.6667C17.3334 11.403 16.7364 12 16 12C15.2636 12 14.6667 11.403 14.6667 10.6667C14.6667 9.93029 15.2636 9.33333 16 9.33333Z" fill="#1C274C"/>
<path d="M9.33335 4.45051C11.2945 3.31604 13.5715 2.66675 16 2.66675C23.3638 2.66675 29.3334 8.63628 29.3334 16.0001C29.3334 23.3638 23.3638 29.3334 16 29.3334C8.63622 29.3334 2.66669 23.3638 2.66669 16.0001C2.66669 13.5715 3.31598 11.2946 4.45045 9.33341"  stroke-width="1.5" stroke-linecap="round"/>
</svg>
