<svg width="32" height="32" viewBox="0 0 32 32" fill="none" xmlns="http://www.w3.org/2000/svg">
<path d="M16 22.3334C15.7359 22.3299 15.4835 22.2235 15.2967 22.0367C15.1099 21.8499 15.0035 21.5975 15 21.3334V14.6667C15 14.4015 15.1053 14.1471 15.2929 13.9597C15.4804 13.7721 15.7348 13.6667 16 13.6667C16.2652 13.6667 16.5196 13.7721 16.7071 13.9597C16.8947 14.1471 17 14.4015 17 14.6667V21.3334C16.9965 21.5975 16.8901 21.8499 16.7033 22.0367C16.5165 22.2235 16.2641 22.3299 16 22.3334Z" fill="black"/>
<path d="M16 12.3334C15.7359 12.33 15.4835 12.2235 15.2967 12.0367C15.1099 11.8499 15.0035 11.5976 15 11.3334V10.6667C15 10.4015 15.1053 10.1472 15.2929 9.95964C15.4804 9.77211 15.7348 9.66675 16 9.66675C16.2652 9.66675 16.5196 9.77211 16.7071 9.95964C16.8947 10.1472 17 10.4015 17 10.6667V11.3334C16.9965 11.5976 16.8901 11.8499 16.7033 12.0367C16.5165 12.2235 16.2641 12.33 16 12.3334Z" fill="black"/>
<path d="M16 28C13.6267 28 11.3065 27.2963 9.33316 25.9776C7.35977 24.6591 5.8217 22.7849 4.91345 20.5923C4.0052 18.3995 3.76756 15.9867 4.23058 13.6589C4.6936 11.3311 5.83649 9.19296 7.51472 7.51472C9.19296 5.83649 11.3311 4.6936 13.6589 4.23058C15.9867 3.76756 18.3995 4.0052 20.5923 4.91345C22.7849 5.8217 24.6591 7.35977 25.9776 9.33316C27.2963 11.3065 28 13.6267 28 16C28 19.1827 26.7357 22.2348 24.4853 24.4853C22.2348 26.7357 19.1827 28 16 28ZM16 6C14.0221 6 12.0888 6.58649 10.4443 7.6853C8.79981 8.78412 7.51808 10.3459 6.76121 12.1732C6.00433 14.0004 5.80631 16.0111 6.19215 17.9509C6.578 19.8907 7.53041 21.6725 8.92893 23.0711C10.3275 24.4696 12.1093 25.422 14.0491 25.8079C15.9889 26.1937 17.9996 25.9957 19.8268 25.2388C21.6541 24.4819 23.2159 23.2001 24.3147 21.5557C25.4135 19.9112 26 17.9779 26 16C26 13.3479 24.9464 10.8043 23.0711 8.92893C21.1957 7.05357 18.6521 6 16 6Z" fill="black"/>
</svg>
