<svg width="24" height="24" viewBox="0 0 24 24" fill="none" xmlns="http://www.w3.org/2000/svg">
<path d="M14.7356 19.5801C14.7356 19.8834 14.658 20.1838 14.5073 20.4641C14.3565 20.7444 14.1356 20.9991 13.857 21.2136C13.5785 21.4281 13.2478 21.5983 12.8839 21.7144C12.52 21.8304 12.1299 21.8902 11.736 21.8902C11.3421 21.8902 10.9521 21.8304 10.5881 21.7144C10.2242 21.5983 9.89354 21.4281 9.61501 21.2136C9.33647 20.9991 9.11552 20.7444 8.96478 20.4641C8.81404 20.1838 8.73645 19.8834 8.73645 19.5801"  stroke-width="2" stroke-linecap="round"/>
<path d="M18.7917 10.9112C18.8915 11.7454 19.1223 12.5607 19.4774 13.3265L19.7421 13.8972C20.7516 16.0741 19.4369 18.6186 17.0773 19.0547L16.9171 19.0843C13.4921 19.7174 9.98001 19.7174 6.55497 19.0843C4.17606 18.6446 2.91751 16.0127 4.06867 13.885L4.29508 13.4665C4.91326 12.3239 5.23697 11.0453 5.23697 9.74614V8.42485C5.23697 6.20106 6.49562 4.16885 8.48652 3.1781C10.2177 2.3166 12.1995 2.15641 14.0267 2.70339"  stroke-width="2" stroke-linecap="round"/>
<path d="M17.8599 8.53711C19.2406 8.53711 20.3599 7.41782 20.3599 6.03711C20.3599 4.6564 19.2406 3.53711 17.8599 3.53711C16.4792 3.53711 15.3599 4.6564 15.3599 6.03711C15.3599 7.41782 16.4792 8.53711 17.8599 8.53711Z" stroke-width="2"/>
</svg>
