<svg width="32" height="32" viewBox="0 0 32 32" fill="none" xmlns="http://www.w3.org/2000/svg">
<path d="M16.0001 28.2224C18.8784 27.8375 21.8361 27.4716 24.0169 25.5541C26.1629 23.6672 26.6877 20.7566 27.579 18.0417C28.675 14.7033 31.3813 11.1728 29.7622 8.05442C28.1426 4.93483 23.7582 4.8884 20.3352 4.08939C17.3972 3.40359 14.4327 2.87852 11.5618 3.80596C8.59856 4.76325 5.76631 6.49909 4.32739 9.26076C2.92393 11.9544 3.85307 15.0695 4.11655 18.0954C4.41602 21.5345 3.32902 25.7304 5.95649 27.9695C8.58466 30.2092 12.5775 28.6802 16.0001 28.2224Z" fill="#BFE3CC"/>
<path d="M24 18V28.6667L16 20.6667L8 28.6667V23.3333M24 11.3333V8.66667C24 7.19391 22.8061 6 21.3333 6H10.6667C9.19391 6 8 7.19391 8 8.66667V18" stroke="black" stroke-width="1.5" stroke-linecap="round" stroke-linejoin="round"/>
</svg>
