<svg width="42" height="42" viewBox="0 0 64 64" fill="none" xmlns="http://www.w3.org/2000/svg">
<path d="M56 34.6666V45.3333C56 48.2789 53.6123 50.6666 50.6667 50.6666H24M13.3333 50.6666C10.3878 50.6666 8 48.2789 8 45.3333V24C8 21.0545 10.3878 18.6666 13.3333 18.6666H20C21.4727 18.6666 22.6667 17.4727 22.6667 16C22.6667 14.5272 23.8606 13.3333 25.3333 13.3333H38.6667C40.1395 13.3333 41.3333 14.5272 41.3333 16C41.3333 17.4727 42.5272 18.6666 44 18.6666H50.6667C53.6123 18.6666 56 21.0545 56 24M24 34.6666C24 39.085 27.5816 42.6666 32 42.6666C36.4184 42.6666 40 39.085 40 34.6666C40 30.2482 36.4184 26.6666 32 26.6666"  stroke-width="4" stroke-linecap="round"/>
</svg>
