<svg width="100" height="100" viewBox="0 0 100 100" fill="none" xmlns="http://www.w3.org/2000/svg">
<g clip-path="url(#clip0_242_2)">
<path d="M85.3553 14.6447C75.9117 5.20086 63.3555 0 50 0C36.6445 0 24.0883 5.20086 14.6447 14.6447C5.20108 24.0886 0 36.6445 0 50C0 63.3555 5.20086 75.9117 14.6447 85.3553C24.0886 94.7989 36.6445 100 50 100C63.3555 100 75.9117 94.7991 85.3553 85.3553C94.7989 75.9114 100 63.3555 100 50C100 36.6445 94.7991 24.0883 85.3553 14.6447ZM83.0646 83.0646C74.2326 91.8963 62.4901 96.7603 50 96.7603C37.5099 96.7603 25.7674 91.8963 16.9354 83.0646C8.10367 74.2326 3.23974 62.4901 3.23974 50C3.23974 37.5099 8.10367 25.7674 16.9354 16.9354C25.7674 8.10367 37.5099 3.23974 50 3.23974C62.4901 3.23974 74.2326 8.10367 83.0646 16.9354C91.8963 25.7674 96.7603 37.5099 96.7603 50C96.7603 62.4901 91.8963 74.2326 83.0646 83.0646Z" fill="black"/>
<path d="M65.0342 27.7825C68.7797 30.0872 70.8424 33.0684 70.8424 36.1771C70.8424 37.0719 71.5676 37.7969 72.4622 37.7969C73.3568 37.7969 74.0821 37.0719 74.0821 36.1771C74.0821 31.901 71.472 27.9399 66.7322 25.0231C63.4705 23.0157 59.4443 21.6671 55.0756 21.0762V18.8984C55.0756 18.0036 54.3504 17.2786 53.4558 17.2786C52.5612 17.2786 51.8359 18.0036 51.8359 18.8984V20.782C51.2275 20.7531 50.6162 20.7343 50 20.7343C49.3838 20.7343 48.7726 20.7531 48.1642 20.782V18.8984C48.1642 18.0036 47.4389 17.2786 46.5443 17.2786C45.6497 17.2786 44.9244 18.0036 44.9244 18.8984V21.0762C40.5558 21.6671 36.5296 23.0159 33.2679 25.0231C28.5281 27.9399 25.918 31.901 25.918 36.1771C25.918 40.4531 28.5281 44.4142 33.2679 47.331C36.5296 49.3384 40.5558 50.687 44.9244 51.2779V75.6557C41.1733 75.0993 37.7426 73.9263 34.9659 72.2174C31.2203 69.9127 29.1577 66.9315 29.1577 63.8228C29.1577 62.928 28.4324 62.203 27.5378 62.203C26.6432 62.203 25.918 62.928 25.918 63.8228C25.918 68.0989 28.5281 72.06 33.2679 74.9768C36.5296 76.9842 40.5558 78.3328 44.9244 78.9237V81.1015C44.9244 81.9963 45.6497 82.7213 46.5443 82.7213C47.4389 82.7213 48.1642 81.9963 48.1642 81.1015V79.2179C48.7726 79.2468 49.3838 79.2656 50 79.2656C50.6162 79.2656 51.2275 79.2468 51.8359 79.2179V81.1015C51.8359 81.9963 52.5612 82.7213 53.4558 82.7213C54.3504 82.7213 55.0756 81.9963 55.0756 81.1015V78.9237C59.4443 78.3328 63.4705 76.984 66.7322 74.9768C71.472 72.06 74.0821 68.0989 74.0821 63.8228C74.0821 59.5468 71.472 55.5857 66.7322 52.6688C63.4705 50.6615 59.4443 49.3129 55.0756 48.722V24.3442C58.8268 24.9006 62.2575 26.0736 65.0342 27.7825ZM34.9659 44.5717C31.2203 42.2669 29.1577 39.2857 29.1577 36.1771C29.1577 33.0684 31.2203 30.0872 34.9659 27.7825C37.7428 26.0736 41.1733 24.9006 44.9244 24.3442V48.0099C41.1733 47.4535 37.7426 46.2805 34.9659 44.5717ZM50 76.0259C49.383 76.0259 48.7713 76.0071 48.1642 75.9758V51.5721C48.7726 51.601 49.3838 51.6198 50 51.6198C50.6171 51.6198 51.2288 51.6386 51.8359 51.6699V75.9755C51.2288 76.0071 50.6171 76.0259 50 76.0259ZM65.0342 55.4282C68.7797 57.733 70.8424 60.7142 70.8424 63.8228C70.8424 66.9315 68.7797 69.9127 65.0342 72.2174C62.2573 73.9263 58.8268 75.0993 55.0756 75.6557V51.99C58.8268 52.5464 62.2575 53.7194 65.0342 55.4282ZM51.8359 48.4278C51.2275 48.3989 50.6162 48.3801 50 48.3801C49.383 48.3801 48.7713 48.3613 48.1642 48.33V24.0241C48.7713 23.9928 49.383 23.974 50 23.974C50.6171 23.974 51.2288 23.9928 51.8359 24.0241V48.4278Z" fill="black"/>
</g>
<defs>
<clipPath id="clip0_242_2">
<rect width="100" height="100" fill="white"/>
</clipPath>
</defs>
</svg>
