<svg width="29" height="29" viewBox="0 0 29 29" fill="none" xmlns="http://www.w3.org/2000/svg">
<path d="M14.3999 24.0569C16.6084 24.4447 18.6516 26.0425 20.8403 25.5551C23.1627 25.038 25.6062 23.5857 26.4709 21.3692C27.3441 19.1307 25.2546 16.802 25.1921 14.4C25.1319 12.0862 27.0976 9.73206 26.1135 7.63715C25.138 5.56062 22.357 5.20557 20.3505 4.09328C18.3807 3.00139 16.6498 1.04271 14.3999 1.14404C12.1537 1.24521 10.5086 3.21356 8.75093 4.61571C7.21141 5.84381 5.68904 7.09794 4.75964 8.83419C3.84686 10.5394 3.85401 12.496 3.51354 14.4C3.10067 16.7088 1.30576 19.2529 2.53983 21.2474C3.78515 23.26 6.84208 22.956 9.14511 23.5015C10.8887 23.9146 12.635 23.747 14.3999 24.0569Z" fill="#BFE3CC"/>
<path d="M21.3999 10.4C23.0568 10.4 24.3999 9.05687 24.3999 7.40002C24.3999 5.74317 23.0568 4.40002 21.3999 4.40002C19.743 4.40002 18.3999 5.74317 18.3999 7.40002C18.3999 9.05687 19.743 10.4 21.3999 10.4Z" stroke="#292D32" stroke-width="1.5" stroke-linecap="round" stroke-linejoin="round"/>
<path d="M9.3999 15.4H14.3999" stroke="#292D32" stroke-width="1.5" stroke-linecap="round" stroke-linejoin="round"/>
<path d="M9.3999 19.4H18.3999" stroke="#292D32" stroke-width="1.5" stroke-linecap="round" stroke-linejoin="round"/>
<path d="M16.3999 4.40002H11.3999C6.3999 4.40002 4.3999 6.40002 4.3999 11.4V17.4C4.3999 22.4 6.3999 24.4 11.3999 24.4H17.3999C22.3999 24.4 24.3999 22.4 24.3999 17.4V12.4" stroke="#292D32" stroke-width="1.5" stroke-linecap="round" stroke-linejoin="round"/>
</svg>
