<svg width="32" height="32" viewBox="0 0 32 32" fill="none" xmlns="http://www.w3.org/2000/svg">
<path d="M26.2166 7.31909H5.78339C4.67882 7.31909 3.78339 8.21452 3.78339 9.31909V22.681C3.78339 23.7856 4.67882 24.681 5.78339 24.681H26.2166C27.3212 24.681 28.2166 23.7856 28.2166 22.681V9.31909C28.2166 8.21452 27.3212 7.31909 26.2166 7.31909Z"  stroke-linecap="round" stroke-linejoin="round"/>
<path d="M9.89173 16.6999C11.2037 16.6999 12.2672 15.6364 12.2672 14.3244C12.2672 13.0125 11.2037 11.949 9.89173 11.949C8.5798 11.949 7.51627 13.0125 7.51627 14.3244C7.51627 15.6364 8.5798 16.6999 9.89173 16.6999Z"  stroke-linecap="round" stroke-linejoin="round"/>
<path d="M6.88507 20.7298H13.4074C13.5248 20.73 13.6398 20.6964 13.7387 20.6332C13.8376 20.5699 13.9163 20.4796 13.9654 20.3729C14.0145 20.2663 14.0319 20.1478 14.0157 20.0315C13.9994 19.9152 13.9501 19.8061 13.8737 19.717C13.4256 19.1593 12.8581 18.7092 12.213 18.4C11.5679 18.0907 10.8616 17.9302 10.1462 17.9302C9.43083 17.9302 8.72455 18.0907 8.07945 18.4C7.43434 18.7092 6.86685 19.1593 6.4188 19.717C6.34233 19.8061 6.29304 19.9152 6.27678 20.0315C6.26053 20.1478 6.27798 20.2663 6.32708 20.3729C6.37618 20.4796 6.45485 20.5699 6.55376 20.6332C6.65267 20.6964 6.76766 20.73 6.88507 20.7298Z"  stroke-linecap="round" stroke-linejoin="round"/>
<path d="M19.139 13.9004H23.805"  stroke-linecap="round" stroke-linejoin="round"/>
<path d="M19.139 18.4814H23.805"  stroke-linecap="round" stroke-linejoin="round"/>
<path d="M19.139 16.1909H25.5866"  stroke-linecap="round" stroke-linejoin="round"/>
</svg>
