<svg width="32" height="32" viewBox="0 0 32 32" fill="none" xmlns="http://www.w3.org/2000/svg">
<path d="M16 5.81827C16.4016 5.81827 16.7272 5.49267 16.7272 5.09102C16.7272 4.68937 16.4016 4.36377 16 4.36377C15.5983 4.36377 15.2727 4.68937 15.2727 5.09102C15.2727 5.49267 15.5983 5.81827 16 5.81827Z" />
<path d="M21.0909 18.9092H16.7273C16.3251 18.9092 16.0001 19.235 16.0001 19.6364C16.0001 20.0379 16.3251 20.3637 16.7273 20.3637H21.0909C21.4931 20.3637 21.8182 20.0379 21.8182 19.6364C21.8182 19.235 21.4931 18.9092 21.0909 18.9092Z" />
<path d="M27.6364 18.9092H24C23.5978 18.9092 23.2728 19.235 23.2728 19.6364C23.2728 20.0379 23.5978 20.3637 24 20.3637H27.6364C28.0386 20.3637 28.3636 20.0379 28.3636 19.6364C28.3636 19.235 28.0386 18.9092 27.6364 18.9092Z" />
<path d="M23.2728 16H16.7272C16.3251 16 16 16.3258 16 16.7272C16 17.1287 16.3251 17.4545 16.7272 17.4545H23.2727C23.6749 17.4545 23.9999 17.1287 23.9999 16.7272C23.9999 16.3258 23.6749 16 23.2728 16Z" />
<path d="M22.5454 21.8181H16.7272C16.3251 21.8181 16 22.1439 16 22.5454C16 22.9468 16.3251 23.2726 16.7272 23.2726H22.5454C22.9476 23.2726 23.2727 22.9468 23.2727 22.5454C23.2727 22.1439 22.9476 21.8181 22.5454 21.8181Z" />
<path d="M27.6364 16H26.1818C25.7796 16 25.4546 16.3258 25.4546 16.7272C25.4546 17.1287 25.7796 17.4545 26.1818 17.4545H27.6364C28.0386 17.4545 28.3636 17.1287 28.3636 16.7272C28.3636 16.3258 28.0386 16 27.6364 16Z" />
<path d="M9.45455 13.8181H7.99999C6.79705 13.8181 5.81818 14.7971 5.81818 15.9999V17.4545C5.81818 19.0589 7.12293 20.3636 8.72724 20.3636C10.3316 20.3636 11.6363 19.0588 11.6363 17.4545V15.9999C11.6364 14.797 10.6574 13.8181 9.45455 13.8181ZM10.1818 17.4545C10.1818 18.2567 9.52943 18.9091 8.72724 18.9091C7.92505 18.9091 7.27268 18.2567 7.27268 17.4545V15.9999C7.27268 15.5992 7.59924 15.2727 7.99993 15.2727H9.45449C9.85524 15.2727 10.1817 15.5992 10.1817 15.9999L10.1818 17.4545Z" />
<path d="M29.8182 7.27271H21.8182C21.416 7.27271 21.0909 7.59852 21.0909 7.99996C21.0909 8.40139 21.416 8.72721 21.8182 8.72721H29.8182C30.2196 8.72721 30.5454 9.05377 30.5454 9.45446V28.3635C30.5454 28.7643 30.2196 29.0908 29.8182 29.0908H2.18181C1.78106 29.0908 1.45456 28.7642 1.45456 28.3635V9.45452C1.45456 9.05377 1.78113 8.72727 2.18181 8.72727H10.1818C10.5832 8.72727 10.9091 8.40146 10.9091 8.00002C10.9091 7.59858 10.5832 7.27277 10.1818 7.27277H2.18181C0.978938 7.27271 0 8.25158 0 9.45452V28.3636C0 29.5665 0.978938 30.5454 2.18181 30.5454H29.8182C31.0211 30.5454 32 29.5665 32 28.3636V9.45452C32 8.25158 31.0211 7.27271 29.8182 7.27271Z" />
<path d="M10.1818 21.0911H7.27276C5.2677 21.0911 3.63638 22.7223 3.63638 24.7274V26.182C3.63638 26.5834 3.9622 26.9093 4.36363 26.9093H13.0909C13.4923 26.9093 13.8181 26.5834 13.8181 26.182V24.7274C13.8182 22.7223 12.1869 21.0911 10.1818 21.0911ZM12.3636 25.4547H5.09095V24.7274C5.09095 23.5245 6.06988 22.5456 7.27276 22.5456H10.1818C11.3848 22.5456 12.3636 23.5246 12.3636 24.7274V25.4547Z" />
<path d="M21.0909 10.1818H13.8182V3.6364C13.8182 3.23565 14.1448 2.90915 14.5454 2.90915H17.4545C17.8559 2.90915 18.1818 3.23571 18.1818 3.6364V8.00003C18.1818 8.40146 18.5068 8.72728 18.909 8.72728C19.3112 8.72728 19.6363 8.40146 19.6363 8.00003V3.6364C19.6363 2.43346 18.6573 1.45459 17.4544 1.45459H14.5454C13.3424 1.45459 12.3636 2.43353 12.3636 3.6364V10.1818H10.909C10.5076 10.1818 10.1818 10.5077 10.1818 10.9091C10.1818 11.3105 10.5076 11.6363 10.909 11.6363H21.0908C21.493 11.6363 21.8181 11.3105 21.8181 10.9091C21.8181 10.5077 21.4931 10.1818 21.0909 10.1818Z" />
</svg>
