<svg width="32" height="32" viewBox="0 0 32 32" fill="none" xmlns="http://www.w3.org/2000/svg">
<path d="M27.44 25.8268L23.4533 14.6801C23.1733 13.9468 22.5467 13.4934 21.8267 13.4934C21.1067 13.4934 20.4933 13.9468 20.1867 14.7068L16.2133 25.8268C16.0267 26.3468 16.2933 26.9201 16.8133 27.1068C17.3333 27.2934 17.9067 27.0268 18.0933 26.5068L18.92 24.2001H24.72L25.5467 26.5068C25.6933 26.9201 26.08 27.1734 26.4933 27.1734C26.6 27.1734 26.72 27.1601 26.8267 27.1201C27.3467 26.9334 27.6133 26.3601 27.4267 25.8401L27.44 25.8268ZM19.6533 22.1868L21.84 16.0668L24.0267 22.1868H19.6533ZM16.2533 10.4668C13.24 15.2268 10.52 18.1068 7.21335 20.0268C7.05335 20.1201 6.88001 20.1601 6.72001 20.1601C6.37335 20.1601 6.04001 19.9868 5.85335 19.6668C5.57335 19.1868 5.73335 18.5734 6.21335 18.3068C9.01333 16.6801 11.3067 14.3468 13.88 10.4801H5.49335C4.94668 10.4801 4.49335 10.0268 4.49335 9.48009C4.49335 8.93342 4.94668 8.48009 5.49335 8.48009H10.4933V5.84009C10.4933 5.29342 10.9467 4.84009 11.4933 4.84009C12.04 4.84009 12.4933 5.29342 12.4933 5.84009V8.48009H17.4933C18.04 8.48009 18.4933 8.93342 18.4933 9.48009C18.4933 10.0268 18.04 10.4801 17.4933 10.4801H16.24L16.2533 10.4668ZM16.3067 20.1601C16.1333 20.1601 15.96 20.1201 15.8 20.0268C14.9333 19.5201 14.0933 18.9601 13.3067 18.3734C12.8667 18.0401 12.7733 17.4134 13.1067 16.9734C13.44 16.5334 14.0667 16.4401 14.5067 16.7734C15.2267 17.3201 16.0133 17.8268 16.8133 18.2934C17.2933 18.5734 17.4533 19.1868 17.1733 19.6668C16.9867 19.9868 16.6533 20.1601 16.3067 20.1601Z"/>
</svg>
