<svg width="29" height="29" viewBox="0 0 29 29" fill="none" xmlns="http://www.w3.org/2000/svg">
<g clip-path="url(#clip0_124_69)">
<path d="M14.4 27.4795C17.3183 27.484 20.3526 27.5501 22.8062 25.9701C25.3362 24.341 27.2255 21.7189 27.8999 18.7863C28.5443 15.9842 27.2793 13.2382 26.3607 10.5137C25.4536 7.82334 24.8479 4.847 22.6106 3.09909C20.3395 1.32482 17.2661 0.867456 14.4 1.16929C11.7218 1.45134 9.44846 3.00954 7.3566 4.70552C5.36792 6.31785 3.58557 8.19464 2.74996 10.6146C1.90365 13.0655 2.15622 15.6667 2.69597 18.2028C3.29503 21.0175 3.75729 24.1568 6.01255 25.9443C8.29588 27.7541 11.4864 27.475 14.4 27.4795Z" fill="#BFE3CC"/>
<mask id="mask0_124_69" style="mask-type:luminance" maskUnits="userSpaceOnUse" x="2" y="2" width="25" height="25">
<path d="M2.39999 2.3999L2.39999 26.3999H26.4V2.3999H2.39999Z" fill="white"/>
</mask>
<g mask="url(#mask0_124_69)">
<path d="M21.4 25.3999H7.39999C5.74314 25.3999 4.39999 24.0568 4.39999 22.3999V13.9629C4.39999 12.8093 4.89807 11.7118 5.76638 10.9523L12.4248 5.12774C13.5558 4.1384 15.2442 4.13841 16.3752 5.12774L23.0336 10.9523C23.9019 11.7118 24.4 12.8093 24.4 13.9629V22.3999C24.4 24.0568 23.0569 25.3999 21.4 25.3999Z" stroke="black" stroke-width="1.5" stroke-linecap="round"/>
<path d="M14.4 18.3999V21.3999" stroke="black" stroke-width="1.5" stroke-linecap="round"/>
</g>
</g>
<defs>
<clipPath id="clip0_124_69">
<rect width="28.8" height="28.8" fill="white"/>
</clipPath>
</defs>
</svg>
