<svg width="24" height="24" viewBox="0 0 24 24" fill="none" xmlns="http://www.w3.org/2000/svg">
<path d="M5.14551 15.4243L6.86013 17.1389"  stroke-width="2" stroke-miterlimit="10" stroke-linecap="round" stroke-linejoin="round"/>
<path d="M7.2887 13.2812L9.00332 14.9959"  stroke-width="2" stroke-miterlimit="10" stroke-linecap="round" stroke-linejoin="round"/>
<path d="M19.1111 14.0786C17.345 15.8361 14.8159 16.3762 12.5955 15.6818L7.70028 20.5684C7.40879 20.8685 6.83439 21.0485 6.42288 20.9885L4.55395 20.7313C3.93669 20.6456 3.36229 20.0626 3.26798 19.4453L3.01079 17.5764C2.95078 17.1649 3.14796 16.5905 3.43087 16.299L8.31754 11.4124C7.63169 9.18335 8.16322 6.65428 9.92928 4.8968C12.4583 2.36773 16.5649 2.36773 19.1025 4.8968C21.6401 7.42586 21.6401 11.5495 19.1111 14.0786Z"  stroke-width="2" stroke-miterlimit="10" stroke-linecap="round" stroke-linejoin="round"/>
<path d="M14.5758 11.1382C15.5228 11.1382 16.2904 10.3706 16.2904 9.4236C16.2904 8.47665 15.5228 7.70898 14.5758 7.70898C13.6289 7.70898 12.8612 8.47665 12.8612 9.4236C12.8612 10.3706 13.6289 11.1382 14.5758 11.1382Z"  stroke-width="2" stroke-linecap="round" stroke-linejoin="round"/>
</svg>
