<svg width="32" height="32" viewBox="0 0 32 32" fill="none" xmlns="http://www.w3.org/2000/svg">
<path d="M6.8606 20.5657L9.14676 22.8519"  stroke-width="1.5" stroke-miterlimit="10" stroke-linecap="round" stroke-linejoin="round"/>
<path d="M9.71826 17.7083L12.0044 19.9945"  stroke-width="1.5" stroke-miterlimit="10" stroke-linecap="round" stroke-linejoin="round"/>
<path d="M25.4815 18.7715C23.1267 21.1148 19.7545 21.8349 16.794 20.9091L10.267 27.4245C9.87839 27.8247 9.11252 28.0647 8.56384 27.9847L6.07193 27.6417C5.24892 27.5275 4.48305 26.7501 4.35731 25.9271L4.01439 23.4352C3.93437 22.8865 4.19728 22.1207 4.57449 21.732L11.0901 15.2165C10.1756 12.2445 10.8843 8.87238 13.239 6.52907C16.6111 3.15698 22.0865 3.15698 25.47 6.52907C28.8535 9.90115 28.8535 15.3993 25.4815 18.7715Z"  stroke-width="1.5" stroke-miterlimit="10" stroke-linecap="round" stroke-linejoin="round"/>
<path d="M19.4343 14.8509C20.697 14.8509 21.7205 13.8275 21.7205 12.5648C21.7205 11.3022 20.697 10.2786 19.4343 10.2786C18.1718 10.2786 17.1482 11.3022 17.1482 12.5648C17.1482 13.8275 18.1718 14.8509 19.4343 14.8509Z"  stroke-width="1.5" stroke-linecap="round" stroke-linejoin="round"/>
</svg>
