<svg width="24" height="24" viewBox="0 0 24 24" fill="none" xmlns="http://www.w3.org/2000/svg">
<path d="M15 12C15 13.6592 13.6592 15 12 15C10.3408 15 9 13.6592 9 12C9 10.3408 10.3408 9 12 9C13.6592 9 15 10.3408 15 12Z"  stroke-width="2" stroke-linecap="round" stroke-linejoin="round"/>
<path d="M12 19.27C15.53 19.27 18.82 17.4413 21.11 14.2764C22.01 13.0368 22.01 10.9532 21.11 9.71356C18.82 6.54861 15.53 4.71997 12 4.71997C8.46997 4.71997 5.17997 6.54861 2.88997 9.71356C1.98997 10.9532 1.98997 13.0368 2.88997 14.2764C5.17997 17.4413 8.46997 19.27 12 19.27Z"  stroke-width="2" stroke-linecap="round" stroke-linejoin="round"/>
</svg>
