<svg width="22" height="21" viewBox="0 0 22 21" fill="none" xmlns="http://www.w3.org/2000/svg">
<path d="M14.6487 3.6947C13.4859 3.25235 12.2582 3.02002 11 3.02002C7.46997 3.02002 4.17997 4.84866 1.88997 8.01362C0.989966 9.25321 0.989966 11.3368 1.88997 12.5764C2.34474 13.2049 2.83895 13.7808 3.36664 14.3M18.3248 5.99634C18.9692 6.58945 19.5676 7.26406 20.11 8.01362C21.01 9.25321 21.01 11.3368 20.11 12.5764C17.82 15.7414 14.53 17.57 11 17.57C9.6143 17.57 8.26561 17.2882 6.99988 16.7545"  stroke-width="2" stroke-linecap="round" stroke-linejoin="round"/>
<path d="M14 10.2998C14 11.959 12.6592 13.2998 11 13.2998M13.0996 8.15521C12.5589 7.62579 11.8181 7.2998 11 7.2998C9.3408 7.2998 8 8.6406 8 10.2998C8 11.0291 8.25906 11.6969 8.69035 12.2164"  stroke-width="2" stroke-linecap="round" stroke-linejoin="round"/>
<path d="M1 19.3L21 1"  stroke-width="2" stroke-linecap="round"/>
</svg>
