<svg width="32" height="32" viewBox="0 0 32 32" fill="none" xmlns="http://www.w3.org/2000/svg">
<path d="M13.9867 2.97345L7.33336 5.46677C5.80003 6.04011 4.54669 7.85343 4.54669 9.49342V19.4C4.54669 20.9734 5.58672 23.04 6.85339 23.9867L12.5867 28.2668C14.4667 29.6802 17.56 29.6802 19.44 28.2668L25.1733 23.9867C26.44 23.04 27.48 20.9734 27.48 19.4V9.49342C27.48 7.85343 26.2267 6.04011 24.6933 5.46677L18.04 2.97345C16.9067 2.56012 15.0933 2.56012 13.9867 2.97345Z" stroke="#292D32" stroke-width="1.5" stroke-linecap="round" stroke-linejoin="round"/>
<path d="M16.0001 14.56C15.9468 14.56 15.8801 14.56 15.8268 14.56C14.5734 14.52 13.5734 13.48 13.5734 12.2134C13.5734 10.92 14.6268 9.8667 15.9201 9.8667C17.2134 9.8667 18.2668 10.92 18.2668 12.2134C18.2534 13.4933 17.2534 14.52 16.0001 14.56Z" stroke="#292D32" stroke-width="1.5" stroke-linecap="round" stroke-linejoin="round"/>
<path d="M13.3467 18.2934C12.0667 19.1467 12.0667 20.5467 13.3467 21.4C14.8 22.3734 17.1867 22.3734 18.64 21.4C19.92 20.5467 19.92 19.1467 18.64 18.2934C17.2 17.32 14.8133 17.32 13.3467 18.2934Z" stroke="#292D32" stroke-width="1.5" stroke-linecap="round" stroke-linejoin="round"/>
</svg>
