<svg width="204" height="204" viewBox="0 0 204 204" fill="none" xmlns="http://www.w3.org/2000/svg">
<path d="M154.962 145.831C154.962 145.831 139.211 121.94 127.166 115.269C132.202 109.945 137.646 103.263 138.927 96.0471C140.207 88.8314 139.344 81.3988 136.447 74.6677C133.549 67.9367 128.742 62.2022 122.621 58.1731C116.499 54.144 109.331 51.9967 102.003 51.9967C94.6747 51.9967 87.5069 54.144 81.3856 58.1731C75.2642 62.2022 70.4576 67.9367 67.5596 74.6677C64.6617 81.3988 63.7995 88.8314 65.0796 96.0471C66.3597 103.263 71.9629 109.945 76.9993 115.269C64.9538 121.94 53.5585 132.823 49.0437 145.831"  stroke-width="3"/>
<path d="M202 102C202 157.228 157.228 202 102 202C46.7715 202 2 157.228 2 102C2 46.7715 46.7715 2 102 2C157.228 2 202 46.7715 202 102Z"  stroke-width="3"/>
</svg>
