<svg width="39" height="39" viewBox="0 0 29 29" fill="none" xmlns="http://www.w3.org/2000/svg">
<path d="M14.4001 22.1171C17.0605 22.0175 19.285 25.4681 21.7935 24.5762C24.2394 23.7065 24.807 20.507 25.7406 18.0848C26.7296 15.519 28.0927 12.8405 27.3356 10.197C26.5695 7.5221 24.3374 5.33592 21.7772 4.24617C19.4537 3.25711 16.857 4.10695 14.4001 4.69077C12.4739 5.14847 10.9773 6.37391 9.19511 7.23599C6.87459 8.35847 2.97557 7.98762 2.39316 10.4987C1.79092 13.0953 6.23919 14.2507 6.97389 16.8129C7.75949 19.5527 4.27368 23.4889 6.59299 25.1455C8.92136 26.8085 11.5408 22.2242 14.4001 22.1171Z" fill="#BFE3CC"/>
<path d="M16.9776 16.9419C17.9805 15.93 18.6 14.5373 18.6 13C18.6 9.90723 16.0928 7.40002 13 7.40002C9.90723 7.40002 7.40002 9.90723 7.40002 13C7.40002 16.0928 9.90723 18.6 13 18.6C14.5555 18.6 15.9628 17.9658 16.9776 16.9419ZM16.9776 16.9419L21.4 21.4" stroke="black" stroke-width="1.5" stroke-linecap="round" stroke-linejoin="round"/>
</svg>
