<svg width="32" height="32" viewBox="0 0 32 32" fill="none" xmlns="http://www.w3.org/2000/svg">
<path d="M24.9067 2H7.09334V13.4533H24.9067V2Z"  stroke-width="1.91" stroke-miterlimit="10"/>
<path d="M7.09334 13.4534V16C7.09334 17.0114 7.4951 17.9813 8.21024 18.6965C8.92538 19.4116 9.89531 19.8134 10.9067 19.8134H13.4533V27.4534C13.4533 28.1288 13.7216 28.7765 14.1992 29.2541C14.6768 29.7317 15.3246 30 16 30C16.6754 30 17.3232 29.7317 17.8008 29.2541C18.2784 28.7765 18.5467 28.1288 18.5467 27.4534V19.8134H21.0933C22.1047 19.8134 23.0746 19.4116 23.7898 18.6965C24.5049 17.9813 24.9067 17.0114 24.9067 16V13.4534H7.09334Z"  stroke-width="1.91" stroke-miterlimit="10"/>
<path d="M12.1867 9.64V2"  stroke-width="1.91" stroke-miterlimit="10"/>
</svg>
