<svg width="100" height="100" viewBox="0 0 100 100" fill="none" xmlns="http://www.w3.org/2000/svg">
<path fill-rule="evenodd" clip-rule="evenodd" d="M97.8053 48.9094C97.8053 75.1091 76.5674 96.3482 50.3692 96.3482C24.1706 96.3482 2.93262 75.1091 2.93262 48.9094C2.93262 22.7096 24.1706 1.47058 50.3692 1.47058C76.5674 1.47058 97.8053 22.7096 97.8053 48.9094ZM61.7654 31.2841C68.3642 33.5503 73.1909 36.9432 72.2439 43.2579C71.5562 47.882 68.9833 50.1185 65.5651 50.9015C70.2548 53.3338 71.8533 57.9497 70.368 63.5309C67.5483 71.5629 60.8454 72.2391 51.9301 70.5603L49.7654 79.1944L44.5395 77.8953L46.6745 69.377C45.3198 69.0418 43.9351 68.6829 42.5086 68.3003L40.3648 76.8603L35.1448 75.5612L37.3065 66.9091L26.7805 64.2635L29.377 58.3018C29.377 58.3018 33.2301 59.3191 33.1765 59.245C34.6565 59.6097 35.3145 58.6488 35.5736 58.0112L41.4398 34.5765C41.5051 33.47 41.1209 32.0762 39.0039 31.5482C39.0842 31.4918 35.2074 30.6079 35.2074 30.6079L36.598 25.0466L47.1389 27.6478L49.283 19.0938L54.5059 20.3929L52.4065 28.7779C53.8121 29.0952 55.2236 29.4185 56.5962 29.7596L58.6806 21.428L63.9065 22.7272L61.7654 31.2841ZM49.2612 45.5535C52.8209 46.4973 60.5671 48.5512 61.9174 43.1662C63.2948 37.6568 55.7692 35.9929 52.0845 35.1782C51.6671 35.0859 51.2983 35.0044 50.998 34.9297L48.3956 45.3285C48.6436 45.3897 48.9348 45.4671 49.2612 45.5535ZM45.228 62.2962C49.4915 63.4194 58.8165 65.8756 60.3004 59.9421C61.8192 53.875 52.778 51.8544 48.3665 50.8682C47.8742 50.7582 47.4383 50.6609 47.0824 50.5723L44.2118 62.0332C44.5033 62.1053 44.8459 62.1956 45.228 62.2962Z" fill="#F7931A"/>
</svg>
