<svg width="124" height="114" viewBox="0 0 124 114" fill="none" xmlns="http://www.w3.org/2000/svg">
<path d="M54.0504 109.329C69.4578 111.279 85.9733 116.943 99.3143 109.711C113.47 102.037 120.201 86.6547 122.998 71.9541C125.785 57.3067 122.687 42.3237 114.598 29.3829C106.442 16.335 94.5812 3.77098 78.3784 0.573934C63.0204 -2.45641 48.985 7.18958 35.0006 13.6772C23.1477 19.176 10.4859 24.3493 4.22371 34.9757C-1.90633 45.3779 -0.255449 57.6571 2.26962 69.219C4.73901 80.5261 8.62283 91.9581 18.3065 99.4593C28.0592 107.014 41.3286 107.72 54.0504 109.329Z" fill="#BFE3CC"/>
<path d="M44.0107 57H40.9833V45.2422H37.1064V42.7227H47.8876V45.2422H44.0107V57ZM55.9443 45.877C56.094 45.877 56.2665 45.8867 56.4619 45.9062C56.6637 45.9193 56.8264 45.9388 56.9501 45.9648L56.7255 48.7578C56.6279 48.7253 56.4879 48.7025 56.3056 48.6895C56.1298 48.6699 55.9768 48.6602 55.8466 48.6602C55.4625 48.6602 55.0882 48.709 54.7236 48.8066C54.3655 48.9043 54.0432 49.0638 53.7568 49.2852C53.4703 49.5 53.2425 49.7865 53.0732 50.1445C52.9104 50.4961 52.829 50.929 52.829 51.4434V57H49.8505V46.082H52.1064L52.5458 47.918H52.6923C52.9072 47.5469 53.1741 47.2083 53.4931 46.9023C53.8186 46.5898 54.1865 46.3424 54.5966 46.1602C55.0133 45.9714 55.4625 45.877 55.9443 45.877ZM63.4052 45.8574C64.8701 45.8574 65.9931 46.1764 66.7744 46.8145C67.5556 47.4525 67.9462 48.4225 67.9462 49.7246V57H65.8661L65.29 55.5156H65.2119C64.8994 55.9062 64.5803 56.2253 64.2548 56.4727C63.9293 56.7201 63.555 56.9023 63.1318 57.0195C62.7086 57.1367 62.1943 57.1953 61.5888 57.1953C60.9443 57.1953 60.3648 57.0716 59.8505 56.8242C59.3427 56.5768 58.9423 56.1992 58.6494 55.6914C58.3564 55.1771 58.2099 54.526 58.2099 53.7383C58.2099 52.5794 58.6168 51.7266 59.4306 51.1797C60.2444 50.6263 61.4651 50.3203 63.0927 50.2617L64.9872 50.2031V49.7246C64.9872 49.1517 64.8375 48.7318 64.538 48.4648C64.2385 48.1979 63.8219 48.0645 63.288 48.0645C62.7607 48.0645 62.2431 48.1393 61.7353 48.2891C61.2275 48.4388 60.7197 48.6276 60.2119 48.8555L59.2255 46.8438C59.805 46.5378 60.4527 46.2969 61.1689 46.1211C61.8915 45.9453 62.637 45.8574 63.4052 45.8574ZM64.9872 51.9414L63.8349 51.9805C62.8714 52.0065 62.2008 52.179 61.8232 52.498C61.4521 52.8171 61.2665 53.237 61.2665 53.7578C61.2665 54.2135 61.4 54.5391 61.6669 54.7344C61.9339 54.9232 62.2822 55.0176 62.7119 55.0176C63.3499 55.0176 63.887 54.8288 64.3232 54.4512C64.7659 54.0736 64.9872 53.5365 64.9872 52.8398V51.9414ZM74.4794 57.1953C73.262 57.1953 72.2691 56.7201 71.5009 55.7695C70.7392 54.8125 70.3583 53.4095 70.3583 51.5605C70.3583 49.6921 70.7457 48.2793 71.5204 47.3223C72.2952 46.3587 73.3076 45.877 74.5576 45.877C75.0784 45.877 75.5374 45.9486 75.9345 46.0918C76.3316 46.235 76.6734 46.4271 76.9599 46.668C77.2529 46.9089 77.5003 47.179 77.7021 47.4785H77.7997C77.7607 47.2702 77.7119 46.9642 77.6533 46.5605C77.6012 46.1504 77.5751 45.7305 77.5751 45.3008V41.8047H80.5634V57H78.2783L77.7021 55.584H77.5751C77.3863 55.8835 77.1487 56.1569 76.8622 56.4043C76.5823 56.6452 76.247 56.8372 75.8564 56.9805C75.4658 57.1237 75.0068 57.1953 74.4794 57.1953ZM75.5244 54.8223C76.3382 54.8223 76.9111 54.5814 77.2431 54.0996C77.5816 53.6113 77.7607 52.8789 77.7802 51.9023V51.5801C77.7802 50.5189 77.6175 49.7083 77.2919 49.1484C76.9664 48.582 76.3609 48.2988 75.4755 48.2988C74.818 48.2988 74.3036 48.582 73.9326 49.1484C73.5615 49.7148 73.3759 50.5319 73.3759 51.5996C73.3759 52.6673 73.5615 53.4714 73.9326 54.0117C74.3102 54.5521 74.8408 54.8223 75.5244 54.8223ZM88.1806 45.877C89.1897 45.877 90.0589 46.0723 90.788 46.4629C91.5172 46.847 92.0803 47.4069 92.4775 48.1426C92.8746 48.8783 93.0732 49.7767 93.0732 50.8379V52.2832H86.0322C86.0647 53.123 86.3154 53.7839 86.7841 54.2656C87.2594 54.7409 87.9169 54.9785 88.7568 54.9785C89.4534 54.9785 90.0914 54.9069 90.6708 54.7637C91.2503 54.6204 91.846 54.4056 92.4579 54.1191V56.4238C91.9176 56.6908 91.3512 56.8861 90.7587 57.0098C90.1728 57.1335 89.4599 57.1953 88.6201 57.1953C87.5263 57.1953 86.5563 56.9935 85.7099 56.5898C84.8701 56.1862 84.2092 55.571 83.7275 54.7441C83.2522 53.9173 83.0146 52.8757 83.0146 51.6191C83.0146 50.3431 83.2294 49.2819 83.6591 48.4355C84.0953 47.5827 84.7008 46.9447 85.4755 46.5215C86.2503 46.0918 87.152 45.877 88.1806 45.877ZM88.2001 47.9961C87.6207 47.9961 87.1389 48.1816 86.7548 48.5527C86.3772 48.9238 86.1591 49.5065 86.1005 50.3008H90.2802C90.2737 49.8581 90.1923 49.4642 90.0361 49.1191C89.8863 48.7741 89.6585 48.5007 89.3525 48.2988C89.053 48.097 88.6689 47.9961 88.2001 47.9961Z" fill="#030318"/>
<path d="M45.0408 73.0299L41.6033 61.8287H41.5155C41.5285 62.0957 41.548 62.4993 41.574 63.0397C41.6066 63.5735 41.6359 64.1432 41.6619 64.7487C41.688 65.3541 41.701 65.901 41.701 66.3893V73.0299H38.9959V58.7526H43.117L46.4959 69.6705H46.5545L50.1385 58.7526H54.2596V73.0299H51.4373V66.2721C51.4373 65.8229 51.4438 65.3053 51.4569 64.7194C51.4764 64.1334 51.4992 63.5768 51.5252 63.0494C51.5513 62.5156 51.5708 62.1152 51.5838 61.8483H51.4959L47.8143 73.0299H45.0408ZM67.5506 67.5514C67.5506 68.4628 67.4269 69.2701 67.1795 69.9733C66.9386 70.6764 66.5838 71.2721 66.1151 71.7604C65.6528 72.2421 65.0929 72.6067 64.4354 72.8541C63.7843 73.1015 63.0487 73.2252 62.2283 73.2252C61.4601 73.2252 60.7537 73.1015 60.1092 72.8541C59.4712 72.6067 58.9145 72.2421 58.4393 71.7604C57.9705 71.2721 57.6059 70.6764 57.3455 69.9733C57.0916 69.2701 56.9647 68.4628 56.9647 67.5514C56.9647 66.3405 57.1795 65.3151 57.6092 64.4752C58.0389 63.6354 58.6509 62.9974 59.4451 62.5612C60.2394 62.125 61.1867 61.9069 62.2869 61.9069C63.3091 61.9069 64.214 62.125 65.0018 62.5612C65.7961 62.9974 66.4178 63.6354 66.867 64.4752C67.3227 65.3151 67.5506 66.3405 67.5506 67.5514ZM60.0018 67.5514C60.0018 68.2675 60.0799 68.8698 60.2362 69.358C60.3924 69.8463 60.6365 70.2142 60.9686 70.4615C61.3006 70.7089 61.7336 70.8326 62.2674 70.8326C62.7948 70.8326 63.2212 70.7089 63.5467 70.4615C63.8787 70.2142 64.1196 69.8463 64.2694 69.358C64.4256 68.8698 64.5037 68.2675 64.5037 67.5514C64.5037 66.8287 64.4256 66.2298 64.2694 65.7545C64.1196 65.2727 63.8787 64.9114 63.5467 64.6705C63.2147 64.4296 62.7817 64.3092 62.2479 64.3092C61.4601 64.3092 60.8872 64.5794 60.5291 65.1198C60.1776 65.6601 60.0018 66.4707 60.0018 67.5514ZM79.9334 67.5514C79.9334 68.4628 79.8097 69.2701 79.5623 69.9733C79.3214 70.6764 78.9666 71.2721 78.4979 71.7604C78.0356 72.2421 77.4757 72.6067 76.8182 72.8541C76.1671 73.1015 75.4315 73.2252 74.6112 73.2252C73.8429 73.2252 73.1365 73.1015 72.492 72.8541C71.854 72.6067 71.2974 72.2421 70.8221 71.7604C70.3533 71.2721 69.9888 70.6764 69.7283 69.9733C69.4744 69.2701 69.3475 68.4628 69.3475 67.5514C69.3475 66.3405 69.5623 65.3151 69.992 64.4752C70.4217 63.6354 71.0337 62.9974 71.828 62.5612C72.6222 62.125 73.5695 61.9069 74.6698 61.9069C75.6919 61.9069 76.5968 62.125 77.3846 62.5612C78.1789 62.9974 78.8006 63.6354 79.2498 64.4752C79.7056 65.3151 79.9334 66.3405 79.9334 67.5514ZM72.3846 67.5514C72.3846 68.2675 72.4627 68.8698 72.619 69.358C72.7752 69.8463 73.0194 70.2142 73.3514 70.4615C73.6834 70.7089 74.1164 70.8326 74.6502 70.8326C75.1776 70.8326 75.604 70.7089 75.9295 70.4615C76.2615 70.2142 76.5024 69.8463 76.6522 69.358C76.8084 68.8698 76.8865 68.2675 76.8865 67.5514C76.8865 66.8287 76.8084 66.2298 76.6522 65.7545C76.5024 65.2727 76.2615 64.9114 75.9295 64.6705C75.5975 64.4296 75.1645 64.3092 74.6307 64.3092C73.8429 64.3092 73.27 64.5794 72.9119 65.1198C72.5604 65.6601 72.3846 66.4707 72.3846 67.5514ZM85.8514 73.2252C84.6339 73.2252 83.6411 72.75 82.8729 71.7994C82.1112 70.8424 81.7303 69.4394 81.7303 67.5905C81.7303 65.722 82.1177 64.3092 82.8924 63.3522C83.6671 62.3886 84.6795 61.9069 85.9295 61.9069C86.4503 61.9069 86.9093 61.9785 87.3065 62.1217C87.7036 62.2649 88.0454 62.457 88.3319 62.6979C88.6248 62.9388 88.8722 63.2089 89.074 63.5084H89.1717C89.1326 63.3001 89.0838 62.9941 89.0252 62.5905C88.9731 62.1803 88.9471 61.7604 88.9471 61.3307V57.8346H91.9354V73.0299H89.6502L89.074 71.6139H88.9471C88.7583 71.9134 88.5207 72.1868 88.2342 72.4342C87.9543 72.6751 87.619 72.8671 87.2283 73.0104C86.8377 73.1536 86.3787 73.2252 85.8514 73.2252ZM86.8963 70.8522C87.7101 70.8522 88.283 70.6113 88.6151 70.1295C88.9536 69.6412 89.1326 68.9088 89.1522 67.9323V67.61C89.1522 66.5488 88.9894 65.7382 88.6639 65.1783C88.3384 64.6119 87.7329 64.3287 86.8475 64.3287C86.1899 64.3287 85.6756 64.6119 85.3045 65.1783C84.9334 65.7448 84.7479 66.5618 84.7479 67.6295C84.7479 68.6972 84.9334 69.5013 85.3045 70.0416C85.6821 70.582 86.2127 70.8522 86.8963 70.8522Z" fill="#05535C"/>
</svg>
