<svg width="249" height="230" viewBox="0 0 249 230" fill="none" xmlns="http://www.w3.org/2000/svg">
<path d="M108.537 221.972C139.476 225.931 172.64 237.429 199.43 222.746C227.856 207.166 241.371 175.935 246.988 146.089C252.584 116.35 246.364 85.9299 230.12 59.6562C213.742 33.1649 189.925 7.65622 157.389 1.16526C126.549 -4.98726 98.365 14.597 70.2834 27.7689C46.482 38.9331 21.0564 49.4364 8.48149 71.0113C-3.82803 92.131 -0.512958 117.061 4.55754 140.536C9.51624 163.492 17.3152 186.703 36.7607 201.933C56.3447 217.271 82.9906 218.703 108.537 221.972Z" fill="#BFE3CC"/>
<path d="M83.8828 110H77.8281V86.4844H70.0742V81.4453H91.6367V86.4844H83.8828V110ZM107.75 87.7539C108.049 87.7539 108.395 87.7734 108.785 87.8125C109.189 87.8385 109.514 87.8776 109.762 87.9297L109.312 93.5156C109.117 93.4505 108.837 93.4049 108.473 93.3789C108.121 93.3398 107.815 93.3203 107.555 93.3203C106.786 93.3203 106.038 93.418 105.309 93.6133C104.592 93.8086 103.948 94.1276 103.375 94.5703C102.802 95 102.346 95.5729 102.008 96.2891C101.682 96.9922 101.52 97.8581 101.52 98.8867V110H95.5625V88.1641H100.074L100.953 91.8359H101.246C101.676 91.0938 102.21 90.4167 102.848 89.8047C103.499 89.1797 104.234 88.6849 105.055 88.3203C105.888 87.9427 106.786 87.7539 107.75 87.7539ZM122.672 87.7148C125.602 87.7148 127.848 88.3529 129.41 89.6289C130.973 90.9049 131.754 92.8451 131.754 95.4492V110H127.594L126.441 107.031H126.285C125.66 107.812 125.022 108.451 124.371 108.945C123.72 109.44 122.971 109.805 122.125 110.039C121.279 110.273 120.25 110.391 119.039 110.391C117.75 110.391 116.591 110.143 115.562 109.648C114.547 109.154 113.746 108.398 113.16 107.383C112.574 106.354 112.281 105.052 112.281 103.477C112.281 101.159 113.095 99.4531 114.723 98.3594C116.35 97.2526 118.792 96.6406 122.047 96.5234L125.836 96.4062V95.4492C125.836 94.3034 125.536 93.4635 124.938 92.9297C124.339 92.3958 123.505 92.1289 122.438 92.1289C121.383 92.1289 120.348 92.2786 119.332 92.5781C118.316 92.8776 117.301 93.2552 116.285 93.7109L114.312 89.6875C115.471 89.0755 116.767 88.5938 118.199 88.2422C119.645 87.8906 121.135 87.7148 122.672 87.7148ZM125.836 99.8828L123.531 99.9609C121.604 100.013 120.263 100.358 119.508 100.996C118.766 101.634 118.395 102.474 118.395 103.516C118.395 104.427 118.661 105.078 119.195 105.469C119.729 105.846 120.426 106.035 121.285 106.035C122.561 106.035 123.635 105.658 124.508 104.902C125.393 104.147 125.836 103.073 125.836 101.68V99.8828ZM144.82 110.391C142.385 110.391 140.4 109.44 138.863 107.539C137.34 105.625 136.578 102.819 136.578 99.1211C136.578 95.3841 137.353 92.5586 138.902 90.6445C140.452 88.7174 142.477 87.7539 144.977 87.7539C146.018 87.7539 146.936 87.8971 147.73 88.1836C148.525 88.4701 149.208 88.8542 149.781 89.3359C150.367 89.8177 150.862 90.3581 151.266 90.957H151.461C151.383 90.5404 151.285 89.9284 151.168 89.1211C151.064 88.3008 151.012 87.4609 151.012 86.6016V79.6094H156.988V110H152.418L151.266 107.168H151.012C150.634 107.767 150.159 108.314 149.586 108.809C149.026 109.29 148.355 109.674 147.574 109.961C146.793 110.247 145.875 110.391 144.82 110.391ZM146.91 105.645C148.538 105.645 149.684 105.163 150.348 104.199C151.025 103.223 151.383 101.758 151.422 99.8047V99.1602C151.422 97.0378 151.096 95.4167 150.445 94.2969C149.794 93.1641 148.583 92.5977 146.812 92.5977C145.497 92.5977 144.469 93.1641 143.727 94.2969C142.984 95.4297 142.613 97.0638 142.613 99.1992C142.613 101.335 142.984 102.943 143.727 104.023C144.482 105.104 145.543 105.645 146.91 105.645ZM172.223 87.7539C174.241 87.7539 175.979 88.1445 177.438 88.9258C178.896 89.694 180.022 90.8138 180.816 92.2852C181.611 93.7565 182.008 95.5534 182.008 97.6758V100.566H167.926C167.991 102.246 168.492 103.568 169.43 104.531C170.38 105.482 171.695 105.957 173.375 105.957C174.768 105.957 176.044 105.814 177.203 105.527C178.362 105.241 179.553 104.811 180.777 104.238V108.848C179.697 109.382 178.564 109.772 177.379 110.02C176.207 110.267 174.781 110.391 173.102 110.391C170.914 110.391 168.974 109.987 167.281 109.18C165.602 108.372 164.28 107.142 163.316 105.488C162.366 103.835 161.891 101.751 161.891 99.2383C161.891 96.6862 162.32 94.5638 163.18 92.8711C164.052 91.1654 165.263 89.8893 166.812 89.043C168.362 88.1836 170.165 87.7539 172.223 87.7539ZM172.262 91.9922C171.103 91.9922 170.139 92.3633 169.371 93.1055C168.616 93.8477 168.18 95.013 168.062 96.6016H176.422C176.409 95.7161 176.246 94.9284 175.934 94.2383C175.634 93.5482 175.178 93.0013 174.566 92.5977C173.967 92.194 173.199 91.9922 172.262 91.9922Z" fill="#030318"/>
<path d="M85.8945 149L79.0195 126.598H78.8438C78.8698 127.132 78.9089 127.939 78.9609 129.02C79.026 130.087 79.0846 131.227 79.1367 132.438C79.1888 133.648 79.2148 134.742 79.2148 135.719V149H73.8047V120.445H82.0469L88.8047 142.281H88.9219L96.0898 120.445H104.332V149H98.6875V135.484C98.6875 134.586 98.7005 133.551 98.7266 132.379C98.7656 131.207 98.8112 130.094 98.8633 129.039C98.9154 127.971 98.9544 127.171 98.9805 126.637H98.8047L91.4414 149H85.8945ZM130.914 138.043C130.914 139.866 130.667 141.48 130.172 142.887C129.69 144.293 128.98 145.484 128.043 146.461C127.118 147.424 125.999 148.154 124.684 148.648C123.382 149.143 121.91 149.391 120.27 149.391C118.733 149.391 117.32 149.143 116.031 148.648C114.755 148.154 113.642 147.424 112.691 146.461C111.754 145.484 111.025 144.293 110.504 142.887C109.996 141.48 109.742 139.866 109.742 138.043C109.742 135.621 110.172 133.57 111.031 131.891C111.891 130.211 113.115 128.935 114.703 128.062C116.292 127.19 118.186 126.754 120.387 126.754C122.431 126.754 124.241 127.19 125.816 128.062C127.405 128.935 128.648 130.211 129.547 131.891C130.458 133.57 130.914 135.621 130.914 138.043ZM115.816 138.043C115.816 139.475 115.973 140.68 116.285 141.656C116.598 142.633 117.086 143.368 117.75 143.863C118.414 144.358 119.28 144.605 120.348 144.605C121.402 144.605 122.255 144.358 122.906 143.863C123.57 143.368 124.052 142.633 124.352 141.656C124.664 140.68 124.82 139.475 124.82 138.043C124.82 136.598 124.664 135.4 124.352 134.449C124.052 133.486 123.57 132.763 122.906 132.281C122.242 131.799 121.376 131.559 120.309 131.559C118.733 131.559 117.587 132.099 116.871 133.18C116.168 134.26 115.816 135.882 115.816 138.043ZM155.68 138.043C155.68 139.866 155.432 141.48 154.938 142.887C154.456 144.293 153.746 145.484 152.809 146.461C151.884 147.424 150.764 148.154 149.449 148.648C148.147 149.143 146.676 149.391 145.035 149.391C143.499 149.391 142.086 149.143 140.797 148.648C139.521 148.154 138.408 147.424 137.457 146.461C136.52 145.484 135.79 144.293 135.27 142.887C134.762 141.48 134.508 139.866 134.508 138.043C134.508 135.621 134.938 133.57 135.797 131.891C136.656 130.211 137.88 128.935 139.469 128.062C141.057 127.19 142.952 126.754 145.152 126.754C147.197 126.754 149.007 127.19 150.582 128.062C152.171 128.935 153.414 130.211 154.312 131.891C155.224 133.57 155.68 135.621 155.68 138.043ZM140.582 138.043C140.582 139.475 140.738 140.68 141.051 141.656C141.363 142.633 141.852 143.368 142.516 143.863C143.18 144.358 144.046 144.605 145.113 144.605C146.168 144.605 147.021 144.358 147.672 143.863C148.336 143.368 148.818 142.633 149.117 141.656C149.43 140.68 149.586 139.475 149.586 138.043C149.586 136.598 149.43 135.4 149.117 134.449C148.818 133.486 148.336 132.763 147.672 132.281C147.008 131.799 146.142 131.559 145.074 131.559C143.499 131.559 142.353 132.099 141.637 133.18C140.934 134.26 140.582 135.882 140.582 138.043ZM167.516 149.391C165.081 149.391 163.095 148.44 161.559 146.539C160.035 144.625 159.273 141.819 159.273 138.121C159.273 134.384 160.048 131.559 161.598 129.645C163.147 127.717 165.172 126.754 167.672 126.754C168.714 126.754 169.632 126.897 170.426 127.184C171.22 127.47 171.904 127.854 172.477 128.336C173.062 128.818 173.557 129.358 173.961 129.957H174.156C174.078 129.54 173.98 128.928 173.863 128.121C173.759 127.301 173.707 126.461 173.707 125.602V118.609H179.684V149H175.113L173.961 146.168H173.707C173.329 146.767 172.854 147.314 172.281 147.809C171.721 148.29 171.051 148.674 170.27 148.961C169.488 149.247 168.57 149.391 167.516 149.391ZM169.605 144.645C171.233 144.645 172.379 144.163 173.043 143.199C173.72 142.223 174.078 140.758 174.117 138.805V138.16C174.117 136.038 173.792 134.417 173.141 133.297C172.49 132.164 171.279 131.598 169.508 131.598C168.193 131.598 167.164 132.164 166.422 133.297C165.68 134.43 165.309 136.064 165.309 138.199C165.309 140.335 165.68 141.943 166.422 143.023C167.177 144.104 168.238 144.645 169.605 144.645Z" fill="#05535C"/>
</svg>
