<svg width="300" height="300" viewBox="0 0 300 300" fill="none" xmlns="http://www.w3.org/2000/svg">
<path d="M150 290.74C183.085 296.407 218.622 283.902 242.955 260.779C266.458 238.445 273.155 204.402 274.928 172.028C276.51 143.14 265.218 116.827 252.256 90.9623C238.291 63.0952 227.488 28.2064 197.916 18.3531C168.499 8.55156 140.051 32.1042 111.434 44.0413C84.6576 55.2107 55.6684 62.3803 37.7207 85.1755C17.6314 110.691 -0.671552 143.779 8.34168 174.978C17.1636 205.515 55.7957 212.823 80.4082 232.936C104.485 252.611 119.353 285.49 150 290.74Z" fill="#BFE3CC"/>
<path d="M150 275C219.036 275 275 219.036 275 150C275 80.9644 219.036 25 150 25C80.9644 25 25 80.9644 25 150C25 219.036 80.9644 275 150 275Z" fill="#BFE3CC"/>
<path d="M187.795 246.457H112.205C100.394 246.457 90.748 236.811 90.748 225V72.6378C90.748 60.8268 100.394 51.1811 112.205 51.1811H187.992C199.803 51.1811 209.449 60.8268 209.449 72.6378V225C209.252 237.008 199.803 246.457 187.795 246.457Z" fill="#324A5E"/>
<path d="M203.74 74.2126H96.063V221.063H203.74V74.2126Z" fill="white"/>
<path d="M203.74 74.2126H96.063V85.8268H203.74V74.2126Z" fill="#E6E9EE"/>
<path d="M161.22 65.5512H138.78C137.795 65.5512 137.008 64.7638 137.008 63.7795C137.008 62.7953 137.795 62.0079 138.78 62.0079H161.417C162.402 62.0079 163.189 62.7953 163.189 63.7795C163.189 64.7638 162.205 65.5512 161.22 65.5512Z" fill="#ACB3BA"/>
<path d="M189.567 65.5512C190.763 65.5512 191.732 64.5817 191.732 63.3858C191.732 62.1899 190.763 61.2205 189.567 61.2205C188.371 61.2205 187.402 62.1899 187.402 63.3858C187.402 64.5817 188.371 65.5512 189.567 65.5512Z" fill="#2B3B4E"/>
<path d="M174.016 69.4882C174.885 69.4882 175.591 68.7831 175.591 67.9134C175.591 67.0436 174.885 66.3386 174.016 66.3386C173.146 66.3386 172.441 67.0436 172.441 67.9134C172.441 68.7831 173.146 69.4882 174.016 69.4882Z" fill="#2B3B4E"/>
<path d="M178.74 69.4882C179.61 69.4882 180.315 68.7831 180.315 67.9134C180.315 67.0436 179.61 66.3386 178.74 66.3386C177.87 66.3386 177.165 67.0436 177.165 67.9134C177.165 68.7831 177.87 69.4882 178.74 69.4882Z" fill="#2B3B4E"/>
<path d="M159.843 237.205H140.157C137.402 237.205 135.236 235.039 135.236 232.283C135.236 230.709 136.614 229.331 138.189 229.331H161.811C163.386 229.331 164.764 230.709 164.764 232.283C164.764 235.039 162.402 237.205 159.843 237.205Z" fill="#ACB3BA"/>
<path d="M123.622 154.921H107.48V195.472H123.622V154.921Z" fill="#CED5E0"/>
<path d="M146.457 122.835H130.315V195.472H146.457V122.835Z" fill="#FFD05B"/>
<path d="M169.488 136.614H153.346V195.669H169.488V136.614Z" fill="#84DBFF"/>
<path d="M192.52 111.024H176.378V195.472H192.52V111.024Z" fill="#FF7058"/>
</svg>
