<svg width="300" height="300" viewBox="0 0 300 300" fill="none" xmlns="http://www.w3.org/2000/svg">
<path d="M150 262.456C165.607 259.584 181.183 258.787 196.335 254.069C212.678 248.98 228.777 243.373 242.8 233.558C258.55 222.534 276.461 211.285 283.191 193.276C289.914 175.284 285.197 154.644 279.095 136.432C273.427 119.518 258.546 107.927 249.448 92.5835C240.456 77.4178 237.66 58.8446 225.514 46.0645C212.68 32.5607 196.327 21.647 178.15 17.5626C159.931 13.4686 141.094 18.3692 123.012 23.0314C105.362 27.5822 87.2021 32.6637 73.4008 44.5702C59.8701 56.2433 53.2167 73.5659 45.663 89.761C38.5239 105.067 34.4272 121.072 30.1041 137.398C25.2224 155.835 12.3574 174.67 18.3894 192.763C24.4311 210.885 47.76 216.368 61.0173 230.12C73.8073 243.389 78.0735 266.352 95.3943 272.646C112.989 279.04 131.589 265.845 150 262.456Z" fill="#BFE3CC"/>
<path d="M166.047 242.276H90.4567C78.6457 242.276 69 232.63 69 220.819V68.4567C69 56.6457 78.6457 47 90.4567 47H166.244C178.055 47 187.701 56.6457 187.701 68.4567V220.819C187.504 232.827 178.055 242.276 166.047 242.276Z" fill="#324A5E"/>
<path d="M181.992 70.0315H74.3149V216.882H181.992V70.0315Z" fill="white"/>
<path d="M181.992 70.0315H74.3149V81.6457H181.992V70.0315Z" fill="#E6E9EE"/>
<path d="M139.472 61.3701H117.032C116.047 61.3701 115.26 60.5827 115.26 59.5984C115.26 58.6142 116.047 57.8268 117.032 57.8268H139.669C140.654 57.8268 141.441 58.6142 141.441 59.5984C141.441 60.5827 140.457 61.3701 139.472 61.3701Z" fill="#ACB3BA"/>
<path d="M167.819 61.3701C169.015 61.3701 169.984 60.4006 169.984 59.2047C169.984 58.0088 169.015 57.0394 167.819 57.0394C166.623 57.0394 165.654 58.0088 165.654 59.2047C165.654 60.4006 166.623 61.3701 167.819 61.3701Z" fill="#2B3B4E"/>
<path d="M152.268 65.3071C153.137 65.3071 153.843 64.602 153.843 63.7323C153.843 62.8625 153.137 62.1575 152.268 62.1575C151.398 62.1575 150.693 62.8625 150.693 63.7323C150.693 64.602 151.398 65.3071 152.268 65.3071Z" fill="#2B3B4E"/>
<path d="M156.992 65.3071C157.862 65.3071 158.567 64.602 158.567 63.7323C158.567 62.8625 157.862 62.1575 156.992 62.1575C156.122 62.1575 155.417 62.8625 155.417 63.7323C155.417 64.602 156.122 65.3071 156.992 65.3071Z" fill="#2B3B4E"/>
<path d="M138.094 233.024H118.409C115.654 233.024 113.488 230.858 113.488 228.102C113.488 226.528 114.866 225.15 116.441 225.15H140.063C141.638 225.15 143.016 226.528 143.016 228.102C143.016 230.858 140.654 233.024 138.094 233.024Z" fill="#ACB3BA"/>
<path d="M247.77 119.73H186.389C181.884 119.73 178.232 123.382 178.232 127.887V143.184L157.728 158.577L178.23 173.971V189.267C178.23 193.772 181.883 197.424 186.387 197.424H247.768C252.273 197.424 255.925 193.772 255.925 189.267V127.887C255.927 123.382 252.274 119.73 247.77 119.73Z" fill="#84DBFF"/>
<path d="M207.865 176.311C207.865 176.332 207.862 176.353 207.862 176.374C207.862 181.716 212.192 186.044 217.533 186.044C222.873 186.044 227.203 181.714 227.203 176.374C227.203 176.353 227.2 176.332 227.2 176.311" fill="#FFD05B"/>
<path d="M234.734 164.836V150.424C234.734 140.924 227.034 133.224 217.534 133.224C208.035 133.224 200.335 140.924 200.335 150.424V164.836C200.335 166.661 199.535 168.395 198.148 169.582C196.761 170.767 195.961 172.502 195.961 174.327C195.961 175.424 196.85 176.313 197.947 176.313H237.127C238.223 176.313 239.113 175.424 239.113 174.327C239.113 172.502 238.313 170.768 236.926 169.582C235.533 168.397 234.734 166.663 234.734 164.836Z" fill="#FFD05B"/>
<path d="M237.125 178.041H197.944C195.894 178.041 194.23 176.375 194.23 174.327C194.23 171.99 195.249 169.782 197.025 168.267C198.029 167.409 198.605 166.158 198.605 164.838V150.425C198.605 139.987 207.096 131.496 217.533 131.496C227.97 131.496 236.462 139.988 236.462 150.425V164.838C236.462 166.16 237.038 167.409 238.044 168.267C239.819 169.782 240.837 171.99 240.837 174.327C240.839 176.375 239.173 178.041 237.125 178.041ZM217.533 134.954C209.002 134.954 202.065 141.895 202.065 150.424V164.836C202.065 167.172 201.046 169.381 199.271 170.898C198.266 171.755 197.69 173.005 197.69 174.325C197.69 174.465 197.804 174.58 197.944 174.58H237.123C237.263 174.58 237.377 174.465 237.377 174.325C237.377 173.004 236.801 171.755 235.798 170.898C234.021 169.381 233.002 167.172 233.002 164.836V150.424C233.004 141.893 226.063 134.954 217.533 134.954Z" fill="black"/>
<path d="M217.533 187.776C211.246 187.776 206.132 182.66 206.132 176.374C206.132 175.417 206.907 174.613 207.864 174.613C208.82 174.613 209.595 175.355 209.595 176.31C209.595 176.356 209.592 176.436 209.588 176.484C209.592 180.752 213.154 184.314 217.533 184.314C221.911 184.314 225.475 180.751 225.475 176.372C225.475 175.415 226.247 174.611 227.203 174.611C228.16 174.611 228.932 175.353 228.932 176.308C228.935 182.66 223.819 187.776 217.533 187.776Z" fill="black"/>
<path d="M247.77 199.154H186.389C180.938 199.154 176.502 194.72 176.502 189.267V174.834L156.69 159.961C156.256 159.634 156 159.122 156 158.577C156 158.032 156.256 157.52 156.69 157.193L176.502 142.32V127.887C176.502 122.436 180.938 118 186.389 118H247.77C253.221 118 257.658 122.434 257.658 127.887V189.267C257.658 194.72 253.221 199.154 247.77 199.154ZM160.61 158.577L179.27 172.587C179.704 172.914 179.96 173.426 179.96 173.971V189.269C179.96 192.814 182.844 195.696 186.387 195.696H247.768C251.313 195.696 254.197 192.814 254.197 189.269V127.887C254.197 124.344 251.313 121.46 247.768 121.46H186.387C182.843 121.46 179.96 124.344 179.96 127.887V143.185C179.96 143.729 179.704 144.242 179.27 144.569L160.61 158.577Z" fill="black"/>
</svg>
