<svg width="300" height="300" viewBox="0 0 300 300" fill="none" xmlns="http://www.w3.org/2000/svg">
<path d="M150 241.812C166.335 236.984 183.848 250.401 200.211 245.67C217.57 240.651 234.997 230.519 243.747 214.709C252.435 199.008 242.29 179.141 246.66 161.737C251.848 141.076 280.323 123.315 271.57 103.895C262.544 83.8684 230.434 90.9991 210.56 81.6419C196.834 75.1794 186.773 63.365 172.824 57.4012C157.139 50.6957 141.091 44.5977 124.033 44.6492C104.652 44.7077 84.7052 47.4859 68.2442 57.7167C50.7463 68.5921 38.3477 85.8082 28.6041 103.961C18.0612 123.602 9.89298 144.763 9.55638 167.053C9.19776 190.8 13.9467 215.077 26.6228 235.161C39.4879 255.545 57.2808 279.505 81.3497 280.802C108.016 282.24 124.391 249.382 150 241.812Z" fill="#BFE3CC"/>
<path d="M211.1 29.2222C188.089 31.7651 169.468 50.4565 167 73.4756C164.706 94.8677 175.893 113.9 193.115 123.162L187.58 145.819C208.458 141.644 216.808 129.118 216.808 129.118C244.481 129.118 266.914 106.684 266.914 79.0117C266.915 49.458 241.329 25.8809 211.1 29.2222Z" fill="#E4EAF6"/>
<path d="M216.808 104.063C230.644 104.063 241.861 92.8468 241.861 79.0103C241.861 65.1737 230.644 53.957 216.808 53.957C202.971 53.957 191.754 65.1737 191.754 79.0103C191.754 92.8468 202.971 104.063 216.808 104.063Z" fill="white"/>
<path d="M112.42 195.926H95.7183L40.96 217.83C36.2041 219.732 33.0854 224.338 33.0854 229.46V262.734C33.0854 267.346 36.8242 271.085 41.4365 271.085H166.702C171.314 271.085 175.053 267.346 175.053 262.734V229.46C175.053 224.338 171.935 219.731 167.179 217.83L112.42 195.926Z" fill="#D7DEED"/>
<path d="M124.947 175.047H83.1914V212.626H124.947V175.047Z" fill="#D29B6E"/>
<path d="M150 137.469C154.175 133.294 158.351 122.859 158.351 116.592C158.351 91.2251 134.048 62.3101 104.069 62.3101C74.0903 62.3101 49.7876 91.2246 49.7876 116.591C49.7876 122.859 53.9629 133.293 58.1387 137.469" fill="#EDCA64"/>
<path d="M241.861 58.1343H225.159C222.851 58.1343 220.984 60.002 220.984 62.3096C220.984 64.6172 222.852 66.4849 225.159 66.4849H231.782L216.809 81.4585L211.41 76.0596C209.779 74.4287 207.136 74.4287 205.505 76.0596L188.803 92.7617C187.172 94.3926 187.172 97.0352 188.803 98.6665C189.619 99.4824 190.687 99.8901 191.755 99.8901C192.823 99.8901 193.892 99.4824 194.707 98.6665L208.457 84.9165L213.856 90.3154C215.487 91.9463 218.129 91.9463 219.761 90.3154L237.686 72.3901V79.0127C237.686 81.3208 239.554 83.188 241.861 83.188C244.169 83.188 246.037 81.3203 246.037 79.0127V62.3101C246.037 60.002 244.169 58.1343 241.861 58.1343Z" fill="#FF5050"/>
<path d="M51.4585 232.671L36.1968 221.225C34.2417 223.461 33.0859 226.36 33.0859 229.46V262.734C33.0859 267.346 36.8252 271.085 41.437 271.085H58.1392V246.032C58.1387 240.775 55.6636 235.825 51.4585 232.671Z" fill="#E4EAF6"/>
<path d="M156.681 232.671L171.942 221.225C173.897 223.461 175.053 226.36 175.053 229.46V262.734C175.053 267.346 171.314 271.085 166.702 271.085H150V246.032C150 240.775 152.476 235.825 156.681 232.671Z" fill="#E4EAF6"/>
<path d="M135.69 195.338C134.381 193.376 131.708 192.886 129.789 194.257L104.069 212.628L121.391 226.485C123.303 228.015 126.116 227.578 127.473 225.54L141.649 204.277L135.69 195.338Z" fill="#E4EAF6"/>
<path d="M72.4487 195.338L66.4897 204.276L80.6655 225.54C82.0234 227.578 84.8359 228.014 86.748 226.484L104.069 212.627L78.3496 194.256C76.4307 192.886 73.7573 193.376 72.4487 195.338Z" fill="#E4EAF6"/>
<path d="M74.8408 170.873C74.8408 170.873 62.3145 183.399 62.3145 204.277C62.3145 225.263 73.0767 239.791 79.1475 246.316C80.5972 247.875 83.1919 246.812 83.1919 244.684V170.873H74.8408Z" fill="#EDCA64"/>
<path d="M150 133.293H145.065L145.545 128.019C145.7 126.312 144.81 124.644 143.255 123.922C136.703 120.881 132.834 115.557 130.845 111.965C129.772 110.029 127.412 109.267 125.428 110.249C107.503 119.13 77.2271 123.263 66.3535 124.514C64.0996 124.773 62.4814 126.778 62.6865 129.037L63.0737 133.293H58.1387C53.5269 133.293 49.7876 137.032 49.7876 141.644V149.995C49.7876 154.607 53.5269 158.346 58.1387 158.346H65.3516L65.6904 162.076C66.1904 167.58 69.3809 172.479 74.2119 175.163L95.958 187.244C101.002 190.046 107.136 190.046 112.181 187.244L133.926 175.163C138.758 172.479 141.949 167.579 142.449 162.074L142.788 158.346H150C154.612 158.346 158.351 154.606 158.351 149.995V141.644C158.351 137.032 154.612 133.293 150 133.293Z" fill="#F0C087"/>
<path d="M143.255 123.922C136.69 120.876 132.82 115.537 130.834 111.945C129.772 110.024 127.369 109.288 125.401 110.262C107.472 119.134 77.2217 123.263 66.354 124.514C64.0996 124.773 62.4814 126.778 62.687 129.037L63.0713 133.259L63.0742 133.293H62.3149H58.1397C53.5273 133.293 49.7886 137.032 49.7886 141.645V149.996C49.7886 154.608 53.5273 158.347 58.1397 158.347H62.3149H65.3516L65.6904 162.075C66.1909 167.579 69.3813 172.48 74.2129 175.164L95.9585 187.245C98.0288 188.396 100.284 189.047 102.571 189.253L96.043 178.373C93.0825 173.438 91.2949 167.891 90.8169 162.156L88.4775 137.73C88.272 135.583 89.7261 133.65 91.8442 133.238C103.026 131.062 115.529 127.93 125.636 123.552C129.026 128.459 134.603 134.214 143.185 137.075L144.073 137.371L145.004 133.253L145.068 137.469L145.545 128.019C145.701 126.312 144.81 124.644 143.255 123.922Z" fill="#E6AF78"/>
<path d="M168.85 214.154L145.551 204.446C145.586 203.633 145.377 202.812 144.906 202.105L138.947 193.167C137.721 191.328 135.849 190.096 133.674 189.698C132.018 189.395 130.355 189.608 128.862 190.294V182.456L135.828 178.586C141.797 175.27 145.729 169.23 146.347 162.43L146.362 162.262H150C156.763 162.262 162.266 156.759 162.266 149.996V141.645C162.266 138.328 160.94 135.317 158.793 133.106C161.097 127.972 162.266 122.43 162.266 116.592C162.266 89.6797 136.844 58.3955 104.069 58.3955C71.2944 58.3955 45.873 89.6792 45.873 116.591C45.873 122.429 47.041 127.972 49.3442 133.106C47.1982 135.316 45.873 138.328 45.873 141.645V149.996C45.873 156.759 51.3755 162.261 58.1387 162.261H61.7759L61.791 162.43C62.1855 166.773 63.938 170.802 66.7036 174.013C64.5698 177.617 58.3989 189.332 58.3989 204.277C58.3989 204.917 58.4116 205.55 58.4297 206.178L39.2876 214.154C33.1416 216.715 29.1704 222.672 29.1704 229.331V262.735C29.1704 269.498 34.6729 275 41.436 275H166.702C173.465 275 178.967 269.498 178.967 262.735V229.331C178.968 222.672 174.996 216.714 168.85 214.154ZM146.085 243.701V267.17H107.984V220.771L118.945 229.541C120.387 230.694 122.18 231.313 124.006 231.313C124.417 231.313 124.83 231.282 125.24 231.218C127.475 230.871 129.476 229.593 130.73 227.711L141.666 211.308L164.702 220.907L152.256 230.863C148.334 234 146.085 238.68 146.085 243.701ZM132.064 197.442C132.086 197.427 132.153 197.378 132.263 197.398C132.371 197.418 132.417 197.488 132.433 197.51L136.944 204.277L124.216 223.37C124.199 223.396 124.153 223.466 124.04 223.483C123.925 223.499 123.861 223.449 123.836 223.429L110.557 212.806L132.064 197.442ZM121.032 195.701L104.069 207.817L87.1064 195.701V186.805L94.0571 190.666C97.1919 192.407 100.63 193.278 104.069 193.278C107.508 193.278 110.947 192.408 114.082 190.666L121.032 186.805V195.701ZM87.1064 205.322L97.5825 212.805L87.1064 221.186V205.322ZM154.437 149.996C154.437 152.442 152.446 154.432 150 154.432H147.075L148.641 137.208H150C152.446 137.208 154.437 139.198 154.437 141.645V149.996ZM68.5322 82.6265C78.5225 72.0493 91.1436 66.2246 104.069 66.2246C116.995 66.2246 129.616 72.0493 139.606 82.6265C148.893 92.457 154.437 105.155 154.437 116.592C154.437 121.165 153.546 125.497 151.81 129.514C151.219 129.426 150.615 129.379 150 129.379H149.352L149.723 125.297C149.887 123.488 148.785 121.804 147.062 121.229C136.626 117.751 132.867 107.095 132.836 107.003C132.46 105.877 131.594 104.982 130.48 104.57C129.367 104.158 128.126 104.273 127.108 104.885C107.245 116.803 62.4097 121.004 61.9595 121.045C59.8066 121.241 58.2197 123.145 58.4155 125.298L58.7866 129.38H58.1382C57.5234 129.38 56.9189 129.427 56.3281 129.515C54.5918 125.497 53.7017 121.165 53.7017 116.592C53.7021 105.154 59.2461 92.457 68.5322 82.6265ZM58.1387 154.432C55.6924 154.432 53.7021 152.442 53.7021 149.996V141.645C53.7021 139.198 55.6924 137.208 58.1387 137.208H59.4985L61.0645 154.432H58.1387ZM127.32 113.679C129.574 117.809 134.013 123.976 141.662 127.5L138.551 161.721C138.167 165.938 135.728 169.685 132.026 171.741L110.28 183.822C106.391 185.982 101.749 185.982 97.8599 183.822L76.1138 171.741C72.4116 169.684 69.9722 165.938 69.5889 161.721L66.5625 128.435C77.5015 127.2 108.58 123.017 127.32 113.679ZM72.9219 178.924L79.3813 182.513C79.3149 182.798 79.2769 183.094 79.2769 183.399V240.438C73.6152 233.367 66.2285 220.947 66.2285 204.277C66.2285 192.432 70.8364 182.716 72.9219 178.924ZM80.7466 253.264C81.4541 253.831 82.3198 254.122 83.1924 254.122C83.7686 254.122 84.3486 253.995 84.8877 253.736C86.2437 253.084 87.1064 251.712 87.1064 250.208V231.211L100.155 220.772V267.17H62.0532V243.702C62.0532 238.68 59.8042 234 55.8828 230.863L43.437 220.907L59.1875 214.344C63.0562 238.831 79.939 252.618 80.7466 253.264ZM37 262.734V229.33C37 228.25 37.2002 227.207 37.5708 226.24L50.9922 236.977C53.0459 238.62 54.2241 241.071 54.2241 243.701V267.17H41.4365C38.9902 267.171 37 265.181 37 262.734ZM171.139 262.734C171.139 265.181 169.148 267.171 166.702 267.171H153.915V243.702C153.915 241.072 155.093 238.621 157.146 236.978L170.568 226.241C170.938 227.208 171.139 228.252 171.139 229.331V262.734Z" fill="black"/>
<path d="M252.835 38.7583C241.411 28.5269 226.044 23.6323 210.671 25.3311C185.782 28.0811 165.779 48.1533 163.108 73.0571C160.851 94.0981 170.8 114.192 188.615 125.09L183.778 144.891C183.46 146.191 183.829 147.562 184.755 148.528C185.5 149.306 186.525 149.734 187.581 149.734C187.836 149.734 188.093 149.709 188.348 149.658C206.106 146.106 215.501 136.854 218.749 132.998C247.641 131.974 270.83 108.149 270.83 79.0112C270.829 63.6709 264.271 48.999 252.835 38.7583ZM216.808 125.204C215.499 125.204 214.277 125.857 213.551 126.947C213.485 127.045 207.524 135.762 192.932 140.407L196.917 124.091C197.341 122.358 196.54 120.559 194.969 119.714C178.318 110.759 168.867 92.7734 170.892 73.8921C173.174 52.6128 190.266 35.4624 211.53 33.1123C224.886 31.6353 237.7 35.7124 247.612 44.5903C257.391 53.3481 263 65.8945 263 79.0117C263 104.482 242.278 125.204 216.808 125.204Z" fill="black"/>
<path d="M245.756 61.9229C245.751 61.8677 245.74 61.8135 245.733 61.7583C245.723 61.687 245.714 61.6147 245.7 61.5439C245.688 61.4805 245.67 61.4185 245.654 61.356C245.639 61.2949 245.625 61.2334 245.607 61.1729C245.589 61.1113 245.565 61.0522 245.544 60.9917C245.523 60.9312 245.502 60.8706 245.478 60.811C245.455 60.7549 245.427 60.7002 245.401 60.6455C245.373 60.585 245.346 60.5239 245.314 60.4644C245.285 60.4106 245.252 60.3599 245.222 60.3076C245.187 60.25 245.155 60.1919 245.117 60.1357C245.078 60.0771 245.035 60.0225 244.993 59.9668C244.958 59.9209 244.926 59.8735 244.889 59.8291C244.725 59.6294 244.542 59.4458 244.342 59.2827C244.299 59.2466 244.252 59.2158 244.208 59.1826C244.15 59.1392 244.094 59.0947 244.035 59.0552C243.98 59.019 243.924 58.9878 243.869 58.9546C243.815 58.9224 243.762 58.8882 243.706 58.8579C243.649 58.8276 243.591 58.8022 243.534 58.7749C243.475 58.7471 243.418 58.7187 243.358 58.6934C243.303 58.6704 243.246 58.6514 243.189 58.6313C243.126 58.6084 243.063 58.584 242.997 58.564C242.941 58.5474 242.884 58.5347 242.828 58.5205C242.76 58.5034 242.694 58.4844 242.625 58.4707C242.562 58.458 242.498 58.4507 242.434 58.4414C242.372 58.4321 242.311 58.4204 242.247 58.4141C242.134 58.4033 242.021 58.3984 241.908 58.397C241.893 58.397 241.877 58.3945 241.862 58.3945H225.16C222.998 58.3945 221.245 60.147 221.245 62.3091C221.245 64.4712 222.998 66.2236 225.16 66.2236H232.412L216.809 81.8267L211.226 76.2437C209.697 74.7148 207.218 74.7148 205.69 76.2437L188.988 92.9458C187.459 94.4746 187.459 96.9531 188.988 98.4815C189.752 99.2456 190.754 99.6279 191.756 99.6279C192.757 99.6279 193.76 99.2461 194.524 98.4815L208.458 84.5474L214.041 90.1304C215.57 91.6592 218.048 91.6592 219.577 90.1304L237.947 71.7598V79.0117C237.947 81.1738 239.7 82.9263 241.862 82.9263C244.024 82.9263 245.776 81.1738 245.776 79.0117V62.311C245.776 62.1812 245.769 62.0518 245.756 61.9229Z" fill="black"/>
</svg>
